<svg width="17" height="17" viewBox="0 0 17 17" fill="none" xmlns="http://www.w3.org/2000/svg">
<path d="M16.6888 4.69033L13.8123 7.56688C13.6048 7.77437 13.3329 7.8781 13.0609 7.8781C12.789 7.8781 12.5171 7.77437 12.3096 7.56688C11.8947 7.15194 11.8947 6.47922 12.3096 6.06428L13.3724 5.00154H2.23291C1.64611 5.00154 1.17041 4.52584 1.17041 3.93904C1.17041 3.35225 1.64611 2.87654 2.23291 2.87654H13.3724L12.3096 1.81381C11.8947 1.39887 11.8947 0.726144 12.3096 0.311205C12.7246 -0.103735 13.3973 -0.103735 13.8123 0.311205L16.6888 3.18776C17.1037 3.60266 17.1037 4.27542 16.6888 4.69033ZM14.186 11.9984H3.62761L4.69037 10.9357C5.10528 10.5208 5.10528 9.84804 4.69037 9.4331C4.2754 9.01816 3.60271 9.01816 3.18773 9.4331L0.31118 12.3097C-0.103727 12.7246 -0.103727 13.3973 0.31118 13.8123L3.18773 16.6888C3.39522 16.8963 3.66712 17 3.93905 17C4.21099 17 4.48289 16.8963 4.69037 16.6888C5.10528 16.2739 5.10528 15.6011 4.69037 15.1862L3.62761 14.1235H14.186C14.7728 14.1235 15.2485 13.6478 15.2485 13.061C15.2485 12.4742 14.7728 11.9984 14.186 11.9984Z" fill="white"/>
</svg>
