<svg width="463" height="500" viewBox="0 0 463 500" fill="none" xmlns="http://www.w3.org/2000/svg">
<path fill-rule="evenodd" clip-rule="evenodd" d="M180.906 46.5459C271.659 24.8313 320.246 115.766 367.194 183.026C411.831 246.973 471.584 320.887 417.441 385.415C357.841 456.445 244.591 464.423 157.072 433.447C80.3405 406.289 51.3754 332.463 55.994 257.487C61.2486 172.186 86.1652 69.2146 180.906 46.5459Z" fill="white" fill-opacity="0.25"/>
<path d="M133.999 320.269C136.184 323.514 139.254 325.355 142.466 325.35L187.9 325.265C191.486 325.258 195.02 324.101 198.216 321.887L299.483 251.834C308.79 245.396 317.132 236.206 322.809 224.169C329.181 210.657 329.874 200.879 327.358 193.971C324.848 187.058 318.747 181.981 307.084 180.947C296.695 180.027 286.362 183.756 277.055 190.189L242.769 213.907L166.652 174.974C165.737 174.133 164.674 173.641 163.572 173.549C162.471 173.456 161.371 173.766 160.387 174.447L137.503 190.279C133.79 192.846 132.892 199.602 135.704 203.815L190.075 250.359L154.154 275.21L128.973 257.907C128.105 257.311 127.147 257.001 126.175 257.003C125.204 257.005 124.246 257.318 123.38 257.917L109.413 267.581C105.779 270.096 104.822 276.653 107.474 280.904L133.999 320.269Z" fill="white"/>
<path d="M122.445 446.037C123.212 447.174 124.289 447.819 125.416 447.817L141.351 447.787C142.609 447.785 143.848 447.379 144.97 446.604L180.488 422.058C183.753 419.802 186.679 416.582 188.67 412.365C190.905 407.63 191.148 404.204 190.265 401.784C189.385 399.362 187.245 397.583 183.155 397.22C179.511 396.898 175.886 398.205 172.622 400.459L160.596 408.769L133.899 395.127C133.578 394.833 133.205 394.661 132.818 394.628C132.432 394.596 132.046 394.704 131.701 394.943L123.675 400.49C122.372 401.39 122.057 403.757 123.044 405.233L142.114 421.541L129.515 430.249L120.683 424.186C120.378 423.977 120.042 423.869 119.702 423.869C119.361 423.87 119.025 423.979 118.721 424.189L113.822 427.576C112.548 428.457 112.212 430.754 113.142 432.244L122.445 446.037Z" fill="#E7F3FF"/>
<path d="M380.106 274.816C380.873 275.953 381.95 276.598 383.076 276.597L399.012 276.567C400.27 276.565 401.509 276.159 402.63 275.383L438.149 250.838C441.413 248.582 444.34 245.362 446.331 241.145C448.566 236.41 448.809 232.984 447.926 230.563C447.046 228.141 444.906 226.363 440.815 226C437.171 225.678 433.547 226.984 430.283 229.239L418.257 237.549L391.559 223.907C391.238 223.613 390.865 223.44 390.479 223.408C390.093 223.376 389.707 223.484 389.362 223.723L381.335 229.27C380.033 230.169 379.718 232.537 380.704 234.013L399.775 250.321L387.176 259.029L378.343 252.966C378.039 252.757 377.703 252.648 377.362 252.649C377.021 252.65 376.686 252.759 376.382 252.969L371.483 256.356C370.208 257.237 369.873 259.534 370.803 261.024L380.106 274.816Z" fill="#9DD0FF"/>
<path d="M275.554 87.864C275.946 88.4326 276.495 88.7551 277.071 88.7542L285.208 88.7393C285.85 88.7381 286.483 88.5354 287.056 88.1475L305.193 75.8748C306.86 74.7469 308.354 73.1369 309.371 71.0281C310.512 68.6609 310.636 66.9478 310.186 65.7375C309.736 64.5265 308.643 63.6371 306.555 63.4559C304.694 63.2947 302.843 63.948 301.176 65.0751L295.035 69.2302L281.403 62.4094C281.239 62.2622 281.048 62.176 280.851 62.1598C280.654 62.1436 280.457 62.1979 280.281 62.3172L276.182 65.0909C275.517 65.5406 275.356 66.7242 275.86 67.4623L285.598 75.6163L279.164 79.9701L274.654 76.9388C274.499 76.8343 274.327 76.78 274.153 76.7803C273.979 76.7806 273.807 76.8354 273.652 76.9404L271.151 78.6336C270.5 79.0741 270.329 80.2228 270.804 80.9676L275.554 87.864Z" fill="#C8E4FF"/>
</svg>
