<svg width="24" height="24" viewBox="0 0 24 24" fill="none" xmlns="http://www.w3.org/2000/svg">
<path d="M22.3998 20.0625L12.6498 3.1875C12.5045 2.93672 12.2537 2.8125 12.0006 2.8125C11.7475 2.8125 11.4943 2.93672 11.3514 3.1875L1.60138 20.0625C1.31309 20.5641 1.67403 21.1875 2.25059 21.1875H21.7506C22.3272 21.1875 22.6881 20.5641 22.3998 20.0625ZM11.2506 9.75C11.2506 9.64687 11.335 9.5625 11.4381 9.5625H12.5631C12.6662 9.5625 12.7506 9.64687 12.7506 9.75V14.0625C12.7506 14.1656 12.6662 14.25 12.5631 14.25H11.4381C11.335 14.25 11.2506 14.1656 11.2506 14.0625V9.75ZM12.0006 18C11.7062 17.994 11.4259 17.8728 11.2198 17.6625C11.0137 17.4522 10.8983 17.1695 10.8983 16.875C10.8983 16.5805 11.0137 16.2978 11.2198 16.0875C11.4259 15.8772 11.7062 15.756 12.0006 15.75C12.295 15.756 12.5753 15.8772 12.7814 16.0875C12.9874 16.2978 13.1029 16.5805 13.1029 16.875C13.1029 17.1695 12.9874 17.4522 12.7814 17.6625C12.5753 17.8728 12.295 17.994 12.0006 18Z" fill="#F24545"/>
</svg>
