<svg width="22" height="24" viewBox="0 0 22 24" fill="none" xmlns="http://www.w3.org/2000/svg">
<path d="M10.975 2.99609C10.4788 2.99609 10.0762 2.59342 10.0762 2.09727V1.19844C10.0762 0.702294 10.4788 0.299622 10.975 0.299622C11.4711 0.299622 11.8738 0.702294 11.8738 1.19844V2.09727C11.8738 2.59342 11.4711 2.99609 10.975 2.99609Z" fill="#595959"/>
<path d="M18.8198 10.8406C18.3236 10.8406 17.9209 10.4379 17.9209 9.94178C17.9209 6.28896 14.9548 3.17634 11.3092 3.00376C7.65907 2.83523 4.40488 5.6463 4.06108 9.278C4.04041 9.49506 4.03007 9.71797 4.03007 9.94178C4.03007 10.4379 3.6274 10.8406 3.13125 10.8406C2.6351 10.8406 2.23242 10.4379 2.23242 9.94178C2.23242 9.66134 2.24545 9.38091 2.27152 9.10857C2.7043 4.53536 6.80159 0.992196 11.3941 1.20836C15.9844 1.42543 19.7186 5.3434 19.7186 9.94178C19.7186 10.4384 19.3159 10.8406 18.8198 10.8406Z" fill="#595959"/>
<path d="M20.504 16.971C20.2825 16.971 20.06 16.8892 19.8861 16.7252C18.6367 15.5423 17.9199 13.8768 17.9199 12.156C17.9199 11.6599 18.3226 11.2572 18.8187 11.2572C19.3149 11.2572 19.7176 11.6599 19.7176 12.156C19.7176 13.3852 20.2294 14.5752 21.122 15.4197C21.4824 15.7608 21.4981 16.3297 21.157 16.6906C20.9804 16.8766 20.7422 16.971 20.504 16.971Z" fill="#595959"/>
<path d="M1.44576 16.971C1.20713 16.971 0.969386 16.8771 0.792767 16.6901C0.451663 16.3297 0.467393 15.7608 0.827821 15.4197C1.72035 14.5752 2.23223 13.3856 2.23223 12.156C2.23223 11.6599 2.63491 11.2572 3.13106 11.2572C3.62721 11.2572 4.02988 11.6599 4.02988 12.156C4.02988 13.8777 3.31307 15.5432 2.0637 16.7252C1.88933 16.8892 1.66732 16.971 1.44576 16.971Z" fill="#595959"/>
<path d="M10.9746 23.6691C8.53877 23.6691 6.48047 21.6108 6.48047 19.1749C6.48047 18.6788 6.88314 18.2761 7.37929 18.2761C7.87544 18.2761 8.27812 18.6788 8.27812 19.1749C8.27812 20.6364 9.5131 21.8714 10.9746 21.8714C12.4361 21.8714 13.6711 20.6364 13.6711 19.1749C13.6711 18.6788 14.0737 18.2761 14.5699 18.2761C15.066 18.2761 15.4687 18.6788 15.4687 19.1749C15.4687 21.6108 13.4104 23.6691 10.9746 23.6691Z" fill="#595959"/>
<path d="M2.68032 20.0738C1.5851 20.0738 0.610779 19.4042 0.19777 18.3678C-0.215689 17.3301 0.0310381 16.1729 0.826497 15.4197C1.18692 15.0781 1.75543 15.0939 2.09743 15.4543C2.43854 15.8147 2.42326 16.3837 2.06283 16.7252C1.66914 17.0982 1.81385 17.5679 1.86778 17.7027C1.92126 17.8366 2.13833 18.2761 2.68032 18.2761C3.17647 18.2761 3.57914 18.6788 3.57914 19.175C3.57914 19.6711 3.17692 20.0738 2.68032 20.0738Z" fill="#595959"/>
<path d="M19.268 20.0737C18.7718 20.0737 18.3691 19.6711 18.3691 19.1749C18.3691 18.6788 18.7718 18.2761 19.268 18.2761C19.8104 18.2761 20.0279 17.8348 20.0818 17.6995C20.1353 17.5651 20.2796 17.0973 19.8859 16.7247C19.5255 16.3832 19.5097 15.8147 19.8508 15.4538C20.1924 15.0934 20.7609 15.0776 21.1218 15.4187C21.9172 16.172 22.1644 17.3283 21.7519 18.3642C21.3384 19.4028 20.3632 20.0737 19.268 20.0737Z" fill="#595959"/>
<path d="M3.1293 13.0544C2.63314 13.0544 2.23047 12.6517 2.23047 12.1556V9.94176C2.23047 9.44561 2.63314 9.04294 3.1293 9.04294C3.62545 9.04294 4.02812 9.44561 4.02812 9.94176V12.1556C4.02812 12.6517 3.6259 13.0544 3.1293 13.0544Z" fill="#595959"/>
<path d="M18.8187 13.0544C18.3226 13.0544 17.9199 12.6517 17.9199 12.1556V9.94176C17.9199 9.44561 18.3226 9.04294 18.8187 9.04294C19.3149 9.04294 19.7176 9.44561 19.7176 9.94176V12.1556C19.7176 12.6517 19.3149 13.0544 18.8187 13.0544Z" fill="#595959"/>
<path d="M19.2679 20.0738H2.68007C2.18392 20.0738 1.78125 19.6711 1.78125 19.1749C1.78125 18.6788 2.18392 18.2761 2.68007 18.2761H19.2674C19.7636 18.2761 20.1662 18.6788 20.1662 19.1749C20.1662 19.6711 19.764 20.0738 19.2679 20.0738Z" fill="#595959"/>
</svg>
